HIERARCHY
ROOT lpalm
{
	OFFSET	0.000000	0.000000	0.000000
	CHANNELS	6	Xposition	Yposition	Zposition	Zrotation	Xrotation	Yrotation
	JOINT lthumbA
	{
		OFFSET	-6.570000	-2.200000	3.500000
		CHANNELS	3	Zrotation	Xrotation	Yrotation
		JOINT lthumbB
		{
			OFFSET	0.000000	0.000000	7.000000
			CHANNELS	3	Zrotation	Xrotation	Yrotation
			JOINT lthumbC
			{
				OFFSET	0.000000	0.000000	3.800000
				CHANNELS	3	Zrotation	Xrotation	Yrotation
				End Site
				{
					OFFSET	0.000000	0.000000	3.000000
				}
			}
		}
	}
	JOINT lindexA
	{
		OFFSET	-2.730000	0.000000	10.400000
		CHANNELS	3	Zrotation	Xrotation	Yrotation
		JOINT lindexB
		{
			OFFSET	0.000000	0.000000	4.600000
			CHANNELS	3	Zrotation	Xrotation	Yrotation
			JOINT lindexC
			{
				OFFSET	0.000000	0.000000	3.000000
				CHANNELS	3	Zrotation	Xrotation	Yrotation
				End Site
				{
					OFFSET	0.000000	0.000000	2.600000
				}
			}
		}
	}
	JOINT lmiddleA
	{
		OFFSET	-0.610000	0.000000	10.000000
		CHANNELS	3	Zrotation	Xrotation	Yrotation
		JOINT lmiddleB
		{
			OFFSET	0.000000	0.000000	5.100000
			CHANNELS	3	Zrotation	Xrotation	Yrotation
			JOINT lmiddleC
			{
				OFFSET	0.000000	0.000000	3.100000
				CHANNELS	3	Zrotation	Xrotation	Yrotation
				End Site
				{
					OFFSET	0.000000	0.000000	2.800000
				}
			}
		}
	}
	JOINT lringA
	{
		OFFSET	1.880000	0.000000	9.700000
		CHANNELS	3	Zrotation	Xrotation	Yrotation
		JOINT lringB
		{
			OFFSET	0.000000	0.000000	4.800000
			CHANNELS	3	Zrotation	Xrotation	Yrotation
			JOINT lringC
			{
				OFFSET	0.000000	0.000000	3.000000
				CHANNELS	3	Zrotation	Xrotation	Yrotation
				End Site
				{
					OFFSET	0.000000	0.000000	2.700000
				}
			}
		}
	}
	JOINT llittleA
	{
		OFFSET	3.540000	0.000000	8.600000
		CHANNELS	3	Zrotation	Xrotation	Yrotation
		JOINT llittleB
		{
			OFFSET	0.000000	0.000000	3.800000
			CHANNELS	3	Zrotation	Xrotation	Yrotation
			JOINT llittleC
			{
				OFFSET	0.000000	0.000000	2.300000
				CHANNELS	3	Zrotation	Xrotation	Yrotation
				End Site
				{
					OFFSET	0.000000	0.000000	2.400000
				}
			}
		}
	}
}
MOTION
Frames:	25
Frame Time:	0.013543
0.00	0.00	0.00	-0.04	30.57	0.07	-4.98	-4.03	-23.68	-15.00	0.00	0.00	0.00	0.00	12.31	0.00	13.69	-11.93	0.00	15.98	0.00	0.00	0.20	0.00	0.00	18.09	0.39	0.00	20.36	0.00	0.00	2.77	0.00	0.00	15.47	5.79	0.00	26.29	0.00	0.00	0.86	0.00	0.00	11.55	5.34	0.00	23.09	0.00	0.00	0.00	0.00
0.00	0.00	0.00	-0.04	30.60	0.07	-4.93	-3.99	-23.69	-15.00	0.00	0.00	0.00	0.00	12.30	0.00	13.68	-11.94	0.00	16.00	0.00	0.00	0.22	0.00	0.00	18.06	0.39	0.00	20.37	0.00	0.00	2.77	0.00	0.00	15.45	5.80	0.00	26.26	0.00	0.00	0.88	0.00	0.00	11.53	5.33	0.00	23.11	0.00	0.00	0.00	0.00
0.00	0.00	0.00	-0.04	30.59	0.07	-4.99	-4.04	-23.62	-15.00	0.00	0.00	0.00	0.00	12.31	0.00	13.65	-11.93	0.00	16.00	0.00	0.00	0.20	0.00	0.00	18.10	0.39	0.00	20.39	0.00	0.00	2.77	0.00	0.00	15.42	5.81	0.00	26.24	0.00	0.00	0.86	0.00	0.00	11.52	5.33	0.00	23.09	0.00	0.00	0.00	0.00
0.00	0.00	0.00	-0.05	30.60	0.08	-4.95	-4.01	-23.61	-15.00	0.00	0.00	0.00	0.00	12.31	0.00	13.65	-11.94	0.00	15.94	0.00	0.00	0.20	0.00	0.00	18.11	0.39	0.00	20.37	0.00	0.00	2.77	0.00	0.00	15.42	5.81	0.00	26.29	0.00	0.00	0.86	0.00	0.00	11.51	5.33	0.00	23.09	0.00	0.00	0.00	0.00
0.00	0.00	0.00	-0.04	30.60	0.08	-4.96	-4.01	-23.63	-15.00	0.00	0.00	0.00	0.00	12.31	0.00	13.66	-11.96	0.00	15.98	0.00	0.00	0.22	0.00	0.00	18.10	0.39	0.00	20.39	0.00	0.00	2.77	0.00	0.00	15.41	5.82	0.00	26.29	0.00	0.00	0.84	0.00	0.00	11.50	5.34	0.00	23.08	0.00	0.00	0.00	0.00
0.00	0.00	0.00	-0.05	30.61	0.09	-4.89	-3.98	-23.62	-15.00	0.00	0.00	0.00	0.00	12.30	0.00	13.68	-11.93	0.00	15.96	0.00	0.00	0.19	0.00	0.00	18.07	0.37	0.00	20.37	0.00	0.00	2.77	0.00	0.00	15.41	5.81	0.00	26.29	0.00	0.00	0.90	0.00	0.00	11.49	5.33	0.00	23.09	0.00	0.00	0.00	0.00
0.00	0.00	0.00	-0.05	30.61	0.09	-4.89	-3.98	-23.62	-15.00	0.00	0.00	0.00	0.00	12.30	0.00	13.68	-11.93	0.00	15.96	0.00	0.00	0.19	0.00	0.00	18.07	0.37	0.00	20.37	0.00	0.00	2.77	0.00	0.00	15.41	5.81	0.00	26.29	0.00	0.00	0.90	0.00	0.00	11.49	5.33	0.00	23.09	0.00	0.00	0.00	0.00
0.00	0.00	0.00	-0.05	30.60	0.08	-4.93	-4.00	-23.59	-15.00	0.00	0.00	0.00	0.00	12.31	0.00	13.68	-11.94	0.00	15.98	0.00	0.00	0.18	0.00	0.00	18.11	0.38	0.00	20.41	0.00	0.00	2.77	0.00	0.00	15.46	5.80	0.00	26.26	0.00	0.00	0.84	0.00	0.00	11.51	5.34	0.00	23.11	0.00	0.00	0.00	0.00
0.00	0.00	0.00	-0.04	30.64	0.07	-4.91	-3.99	-23.56	-15.00	0.00	0.00	0.00	0.00	12.33	0.00	13.64	-11.95	0.00	15.98	0.00	0.00	0.20	0.00	0.00	18.09	0.39	0.00	20.39	0.00	0.00	2.77	0.00	0.00	15.43	5.81	0.00	26.26	0.00	0.00	0.86	0.00	0.00	11.50	5.33	0.00	23.11	0.00	0.00	0.00	0.00
0.00	0.00	0.00	-0.05	30.64	0.08	-4.94	-4.01	-23.57	-15.00	0.00	0.00	0.00	0.00	12.33	0.00	13.62	-11.94	0.00	15.96	0.00	0.00	0.19	0.00	0.00	18.12	0.38	0.00	20.41	0.00	0.00	2.77	0.00	0.00	15.46	5.82	0.00	26.26	0.00	0.00	0.86	0.00	0.00	11.51	5.33	0.00	23.09	0.00	0.00	0.00	0.00
0.00	0.00	0.00	-0.05	30.66	0.08	-5.03	-4.06	-23.57	-15.00	0.00	0.00	0.00	0.00	12.33	0.00	13.64	-11.95	0.00	16.00	0.00	0.00	0.19	0.00	0.00	18.08	0.37	0.00	20.39	0.00	0.00	2.77	0.00	0.00	15.41	5.84	0.00	26.24	0.00	0.00	0.86	0.00	0.00	11.52	5.33	0.00	23.09	0.00	0.00	0.00	0.00
0.00	0.00	0.00	-0.05	30.68	0.09	-5.05	-4.08	-23.53	-15.00	0.00	0.00	0.00	0.00	12.33	0.00	13.62	-11.96	0.00	15.98	0.00	0.00	0.18	0.00	0.00	18.08	0.38	0.00	20.41	0.00	0.00	2.77	0.00	0.00	15.42	5.82	0.00	26.29	0.00	0.00	0.84	0.00	0.00	11.49	5.34	0.00	23.09	0.00	0.00	0.00	0.00
0.00	0.00	0.00	-0.06	30.71	0.10	-4.83	-3.95	-23.50	-15.00	0.00	0.00	0.00	0.00	12.35	0.00	13.62	-11.93	0.00	15.98	0.00	0.00	0.19	0.00	0.00	18.04	0.37	0.00	20.36	0.00	0.00	2.77	0.00	0.00	15.41	5.84	0.00	26.26	0.00	0.00	0.86	0.00	0.00	11.47	5.32	0.00	23.09	0.00	0.00	0.00	0.00
0.00	0.00	0.00	-0.07	30.73	0.11	-4.87	-3.98	-23.47	-15.00	0.00	0.00	0.00	0.00	12.33	0.00	13.62	-11.95	0.00	15.96	0.00	0.00	0.19	0.00	0.00	18.08	0.38	0.00	20.37	0.00	0.00	2.77	0.00	0.00	15.40	5.84	0.00	26.29	0.00	0.00	0.82	0.00	0.00	11.44	5.33	0.00	23.11	0.00	0.00	0.00	0.00
0.00	0.00	0.00	-0.06	30.75	0.11	-4.84	-3.96	-23.46	-15.00	0.00	0.00	0.00	0.00	12.34	0.00	13.60	-11.95	0.00	15.96	0.00	0.00	0.16	0.00	0.00	18.10	0.37	0.00	20.37	0.00	0.00	2.74	0.00	0.00	15.39	5.83	0.00	26.29	0.00	0.00	0.84	0.00	0.00	11.43	5.35	0.00	23.06	0.00	0.00	0.00	0.00
0.00	0.00	0.00	-0.05	30.76	0.09	-4.95	-4.02	-23.45	-15.00	0.00	0.00	0.00	0.00	12.34	0.00	13.53	-11.97	0.00	15.98	0.00	0.00	0.16	0.00	0.00	18.01	0.38	0.00	20.36	0.00	0.00	2.71	0.00	0.00	15.37	5.83	0.00	26.29	0.00	0.00	0.86	0.00	0.00	11.41	5.35	0.00	23.06	0.00	0.00	0.00	0.00
0.00	0.00	0.00	-0.05	30.74	0.09	-4.94	-4.02	-23.47	-15.00	0.00	0.00	0.00	0.00	12.35	0.00	13.59	-11.94	0.00	15.96	0.00	0.00	0.16	0.00	0.00	18.01	0.36	0.00	20.41	0.00	0.00	2.77	0.00	0.00	15.39	5.84	0.00	26.26	0.00	0.00	0.86	0.00	0.00	11.44	5.34	0.00	23.09	0.00	0.00	0.00	0.00
0.00	0.00	0.00	-0.06	30.74	0.10	-4.82	-3.95	-23.50	-15.00	0.00	0.00	0.00	0.00	12.34	0.00	13.59	-11.94	0.00	15.96	0.00	0.00	0.18	0.00	0.00	18.01	0.38	0.00	20.39	0.00	0.00	2.77	0.00	0.00	15.38	5.82	0.00	26.26	0.00	0.00	0.88	0.00	0.00	11.44	5.34	0.00	23.09	0.00	0.00	0.00	0.00
0.00	0.00	0.00	-0.06	30.77	0.10	-4.82	-3.95	-23.45	-15.00	0.00	0.00	0.00	0.00	12.34	0.00	13.58	-11.97	0.00	15.98	0.00	0.00	0.18	0.00	0.00	18.00	0.38	0.00	20.41	0.00	0.00	2.74	0.00	0.00	15.37	5.85	0.00	26.29	0.00	0.00	0.86	0.00	0.00	11.43	5.35	0.00	23.09	0.00	0.00	0.00	0.00
0.00	0.00	0.00	-0.06	30.80	0.10	-4.86	-3.97	-23.47	-15.00	0.00	0.00	0.00	0.00	12.35	0.00	13.59	-11.95	0.00	15.98	0.00	0.00	0.19	0.00	0.00	18.00	0.38	0.00	20.41	0.00	0.00	2.77	0.00	0.00	15.37	5.83	0.00	26.29	0.00	0.00	0.88	0.00	0.00	11.40	5.35	0.00	23.09	0.00	0.00	0.00	0.00
0.00	0.00	0.00	-0.07	30.81	0.11	-4.84	-3.97	-23.46	-15.00	0.00	0.00	0.00	0.00	12.34	0.00	13.58	-11.95	0.00	15.94	0.00	0.00	0.18	0.00	0.00	18.02	0.39	0.00	20.37	0.00	0.00	2.77	0.00	0.00	15.35	5.82	0.00	26.29	0.00	0.00	0.86	0.00	0.00	11.38	5.34	0.00	23.09	0.00	0.00	0.00	0.00
0.00	0.00	0.00	-0.06	30.85	0.10	-4.97	-4.04	-23.42	-15.00	0.00	0.00	0.00	0.00	12.36	0.00	13.51	-11.99	0.00	15.94	0.00	0.00	0.16	0.00	0.00	18.01	0.39	0.00	20.39	0.00	0.00	2.77	0.00	0.00	15.33	5.84	0.00	26.26	0.00	0.00	0.84	0.00	0.00	11.37	5.36	0.00	23.06	0.00	0.00	0.00	0.00
0.00	0.00	0.00	-0.08	30.87	0.13	-4.86	-3.98	-23.41	-15.00	0.00	0.00	0.00	0.00	12.37	0.00	13.51	-11.99	0.00	15.98	0.00	0.00	0.16	0.00	0.00	17.98	0.39	0.00	20.37	0.00	0.00	2.74	0.00	0.00	15.34	5.86	0.00	26.24	0.00	0.00	0.86	0.00	0.00	11.34	5.35	0.00	23.09	0.00	0.00	0.00	0.00
0.00	0.00	0.00	-0.08	30.86	0.13	-4.59	-3.83	-23.27	-15.00	0.00	0.00	0.00	0.00	12.36	0.00	13.50	-11.97	0.00	15.98	0.00	0.00	0.15	0.00	0.00	17.98	0.39	0.00	20.36	0.00	0.00	2.74	0.00	0.00	15.36	5.86	0.00	26.24	0.00	0.00	0.82	0.00	0.00	11.37	5.35	0.00	23.09	0.00	0.00	0.00	0.00
0.00	0.00	0.00	-0.10	30.95	0.17	-4.49	-3.78	-23.15	-15.00	0.00	0.00	0.00	0.00	12.38	0.00	13.47	-11.98	0.00	15.94	0.00	0.00	0.15	0.00	0.00	17.94	0.39	0.00	20.37	0.00	0.00	2.77	0.00	0.00	15.29	5.86	0.00	26.29	0.00	0.00	0.82	0.00	0.00	11.30	5.37	0.00	23.06	0.00	0.00	0.00	0.00
